<svg width="23" height="25" viewBox="0 0 23 25" fill="none" xmlns="http://www.w3.org/2000/svg">
<path d="M16.3056 0.00146484C14.1519 0.00146484 12.3116 1.91379 11.3006 3.23218C10.2895 1.91379 8.45334 0.00146484 6.3007 0.00146484C2.59036 0.00146484 0 3.22322 0 7.83506C0 12.9167 3.21714 16.2011 6.32947 19.3781C7.79882 20.8795 9.31953 22.4309 10.4858 24.1512C10.682 24.4392 10.9697 24.6056 11.2718 24.6056H11.3314C11.6345 24.6056 11.9212 24.4379 12.1164 24.1512C13.2847 22.4309 14.8044 20.8783 16.2748 19.3781C19.3861 16.2024 22.6053 12.9179 22.6053 7.83506C22.6053 3.22322 20.0149 0.00146484 16.3056 0.00146484Z" fill="white"/>
</svg>
